<svg id="Capa_1" data-name="Capa 1" xmlns="http://www.w3.org/2000/svg" xmlns:xlink="http://www.w3.org/1999/xlink" viewBox="0 0 512 408"><defs><style>.cls-1{fill:url(#Degradado_sin_nombre);}.cls-2{font-size:300px;fill:#f2ebeb;font-family:LucidaFax, Lucida Fax;}</style><linearGradient id="Degradado_sin_nombre" x1="51.55" y1="367.3" x2="498.95" y2="12.16" gradientTransform="matrix(1, 0, 0, -1, 0, 409)" gradientUnits="userSpaceOnUse"><stop offset="0" stop-color="#9013fe"/><stop offset="1" stop-color="#6610f2"/></linearGradient></defs><title>logogorki</title><path class="cls-1" d="M56.48,53.32C55.51,25.58,77.13,0,106.34,0H405.7c29.21,0,50.83,25.58,49.86,53.32-.93,26.65.28,61.17,9,89.31S487.93,188.71,512,191v26c-24.07,2.29-38.77,20.14-47.48,48.37s-9.89,62.66-9,89.31c1,27.74-20.65,53.32-49.86,53.32H106.34c-29.21,0-50.83-25.58-49.86-53.32.93-26.65-.28-61.17-9-89.31S24.07,219.29,0,217V191c24.07-2.29,38.8-20.14,47.52-48.37S57.41,80,56.48,53.32Z"/><text class="cls-2" transform="translate(122 297)">G</text></svg>